<svg xmlns="http://www.w3.org/2000/svg" xmlns:xlink="http://www.w3.org/1999/xlink" width="200" zoomAndPan="magnify" viewBox="0 0 150 74.999997" height="100" preserveAspectRatio="xMidYMid meet" version="1.0"><defs><g/><clipPath id="7bbec19eeb"><path d="M 0 17.371094 L 57 17.371094 L 57 50 L 0 50 Z M 0 17.371094 " clip-rule="nonzero"/></clipPath></defs><g clip-path="url(#7bbec19eeb)"><path fill="#ff7828" d="M 28.578125 17.816406 C 33.921875 17.816406 38.640625 20.40625 41.558594 24.386719 C 41.75 24.660156 42.019531 24.769531 42.347656 24.742188 C 47.09375 24.058594 56.226562 23.132812 57.074219 26.242188 C 57.5625 28.09375 54.617188 30.550781 49.464844 33.003906 C 48.128906 33.628906 46.65625 34.257812 45.074219 34.914062 C 44.773438 35.019531 44.585938 35.265625 44.558594 35.59375 C 43.683594 43.636719 36.867188 49.910156 28.578125 49.910156 C 23.261719 49.910156 18.542969 47.320312 15.628906 43.335938 C 15.4375 43.09375 15.164062 42.957031 14.835938 43.011719 C 10.09375 43.691406 0.957031 44.621094 0.113281 41.484375 C -0.378906 39.628906 2.566406 37.175781 7.71875 34.722656 C 9.027344 34.121094 10.5 33.46875 12.109375 32.839844 C 12.410156 32.703125 12.601562 32.457031 12.628906 32.160156 C 13.472656 24.085938 20.316406 17.816406 28.578125 17.816406 Z M 33.949219 30.085938 C 34.414062 29.242188 35.476562 28.96875 36.296875 29.457031 C 35.476562 28.96875 35.175781 27.933594 35.667969 27.113281 C 35.175781 27.933594 34.140625 28.203125 33.324219 27.742188 C 34.140625 28.203125 34.414062 29.242188 33.949219 30.085938 Z M 35.941406 26.269531 C 36.40625 25.449219 37.46875 25.179688 38.285156 25.640625 C 37.46875 25.179688 37.167969 24.113281 37.660156 23.296875 C 37.167969 24.113281 36.132812 24.414062 35.3125 23.921875 C 36.132812 24.414062 36.40625 25.449219 35.941406 26.269531 Z M 29.398438 26.785156 C 30.351562 25.125 32.449219 24.578125 34.113281 25.53125 C 32.449219 24.578125 31.90625 22.453125 32.859375 20.816406 C 31.90625 22.453125 29.777344 23.023438 28.144531 22.070312 C 29.777344 23.023438 30.351562 25.125 29.398438 26.785156 Z M 43.304688 27.414062 C 43.710938 28.394531 44.066406 29.429688 44.285156 30.46875 C 44.339844 30.714844 44.476562 30.902344 44.695312 31.039062 C 44.910156 31.148438 45.128906 31.175781 45.375 31.09375 C 46.847656 30.550781 48.320312 29.976562 49.765625 29.324219 C 49.765625 29.296875 49.792969 29.296875 49.792969 29.296875 L 52.492188 28.230469 C 50.28125 29.621094 47.011719 31.121094 44.558594 32.132812 C 39.8125 34.039062 33.976562 35.921875 29.453125 37.09375 C 26.097656 37.964844 22.988281 38.703125 19.609375 39.355469 C 19.609375 39.355469 19.609375 39.382812 19.609375 39.382812 L 15.65625 40.066406 C 15.65625 40.066406 15.65625 40.066406 15.628906 40.066406 C 12.21875 40.609375 7.910156 41.101562 4.800781 40.9375 C 4.800781 40.9375 8.59375 40.636719 12.683594 39.902344 C 12.929688 39.875 13.117188 39.738281 13.253906 39.519531 C 13.363281 39.300781 13.390625 39.085938 13.335938 38.839844 C 12.980469 37.800781 12.765625 36.738281 12.628906 35.648438 C 12.601562 35.375 12.464844 35.15625 12.21875 35.019531 C 12 34.886719 11.726562 34.859375 11.484375 34.964844 C 7.882812 36.492188 1.394531 39.574219 1.804688 41.046875 C 2.265625 42.765625 11.644531 41.730469 15 41.210938 C 22.878906 40.039062 32.234375 37.640625 39.757812 35.019531 C 42.757812 33.984375 45.894531 32.757812 48.730469 31.421875 C 53.0625 29.351562 55.628906 27.632812 55.382812 26.675781 C 54.972656 25.207031 47.828125 25.777344 43.957031 26.269531 C 43.683594 26.296875 43.464844 26.460938 43.332031 26.675781 C 43.195312 26.921875 43.195312 27.167969 43.304688 27.414062 Z M 43.304688 27.414062 " fill-opacity="1" fill-rule="evenodd"/></g><g fill="#ffffff" fill-opacity="1"><g transform="translate(44.569537, 49.598357)"><g><path d="M 11.734375 -14.1875 L 12.046875 -0.046875 L 7.875 0.046875 L 7.765625 -4.9375 L 4.578125 -4.734375 L 4.265625 -0.0625 L 0.40625 0.015625 L 1.015625 -14.65625 L 1.796875 -15.59375 L 10.515625 -15.984375 Z M 7.734375 -7.984375 L 7.640625 -11.953125 L 5 -11.734375 L 4.796875 -8.1875 Z M 7.734375 -7.984375 "/></g></g></g><g fill="#ffffff" fill-opacity="1"><g transform="translate(56.804609, 49.598357)"><g><path d="M 10.640625 -11.546875 L 11.6875 -10.234375 L 11.578125 -1.5 L 10.796875 -0.078125 L 1.84375 -0.015625 L 0.5 -0.71875 L 0.40625 -10.375 L 1.203125 -11.71875 Z M 7.4375 -8.375 L 4.640625 -8.5 L 4.71875 -3.203125 L 7.375 -2.984375 Z M 7.4375 -8.375 "/></g></g></g><g fill="#ffffff" fill-opacity="1"><g transform="translate(68.679821, 49.598357)"><g><path d="M 10.875 -4.140625 L 10.875 -1.734375 L 9.859375 -0.125 L 1.859375 0 L 1.09375 -1.28125 L 1.1875 -8.578125 L 0.421875 -8.765625 L 0.40625 -11.125 L 0.84375 -11.578125 L 1.421875 -11.625 L 1.640625 -14.5 L 4.734375 -14.4375 L 5.21875 -13.921875 L 5.203125 -11.625 L 9.546875 -11.515625 L 10.046875 -10.8125 L 10 -8.5 L 9.484375 -8.125 L 5.265625 -8.234375 L 5.078125 -3.234375 L 6.984375 -3.15625 L 7.4375 -5.015625 L 10.375 -4.84375 Z M 10.875 -4.140625 "/></g></g></g><g fill="#ffffff" fill-opacity="1"><g transform="translate(79.155273, 49.598357)"><g><path d="M 10.875 -4.140625 L 10.875 -1.734375 L 9.859375 -0.125 L 1.859375 0 L 1.09375 -1.28125 L 1.1875 -8.578125 L 0.421875 -8.765625 L 0.40625 -11.125 L 0.84375 -11.578125 L 1.421875 -11.625 L 1.640625 -14.5 L 4.734375 -14.4375 L 5.21875 -13.921875 L 5.203125 -11.625 L 9.546875 -11.515625 L 10.046875 -10.8125 L 10 -8.5 L 9.484375 -8.125 L 5.265625 -8.234375 L 5.078125 -3.234375 L 6.984375 -3.15625 L 7.4375 -5.015625 L 10.375 -4.84375 Z M 10.875 -4.140625 "/></g></g></g><g fill="#ffffff" fill-opacity="1"><g transform="translate(90.230807, 49.598357)"><g><path d="M 11.703125 -10.875 L 11.84375 0 L 9.09375 0.015625 L 8.6875 -0.6875 L 8.21875 0 L 1.90625 -0.0625 L 0.40625 -1.15625 L 0.765625 -6.359375 L 1.921875 -7.15625 L 7.515625 -7.265625 L 7.578125 -8.625 L 4.734375 -8.8125 L 4.40625 -8.078125 L 0.734375 -8.3125 L 0.546875 -9.765625 L 1.578125 -11.515625 L 10.375 -11.640625 Z M 7.65625 -3.125 L 7.640625 -4.953125 L 4.65625 -4.921875 L 4.78125 -3.234375 Z M 7.65625 -3.125 "/></g></g></g><g fill="#ffffff" fill-opacity="1"><g transform="translate(102.265962, 49.598357)"><g><path d="M 10.078125 -11.546875 L 11.125 -10.1875 L 11.0625 -6.578125 L 10.453125 -5.59375 L 7.3125 -5.65625 L 7.046875 -8.046875 L 4.734375 -8.15625 L 4.734375 -0.046875 L 0.5625 -0.265625 L 0.40625 -11.65625 L 2.90625 -11.640625 L 3.28125 -10.984375 L 3.765625 -11.515625 Z M 10.078125 -11.546875 "/></g></g></g><g fill="#ffffff" fill-opacity="1"><g transform="translate(113.581399, 49.598357)"><g><path d="M 0.40625 -0.046875 L 0.5 -11.703125 L 4.84375 -11.703125 L 4.296875 -0.234375 Z M 3.765625 -12.09375 L 1.578125 -12.0625 L 0.578125 -12.734375 L 0.6875 -15.984375 L 4.453125 -15.984375 L 4.953125 -15.4375 L 4.515625 -12.71875 Z M 3.765625 -12.09375 "/></g></g></g><g fill="#ffffff" fill-opacity="1"><g transform="translate(118.939282, 49.598357)"><g/></g></g><g fill="#ffffff" fill-opacity="1"><g transform="translate(124.936912, 49.598357)"><g><path d="M 10.90625 -4.453125 L 9.859375 -4.34375 L 11.265625 -1.484375 L 10.921875 -0.796875 L 7.84375 0 L 5.625 -4.0625 L 4.640625 -4.015625 L 4.453125 -0.40625 L 0.40625 -0.0625 L 0.40625 -16.046875 L 10.875 -15.40625 L 11.65625 -14.625 L 11.6875 -5.796875 Z M 7.453125 -7.8125 L 7.484375 -12.296875 L 4.84375 -12.5625 L 4.734375 -7.625 Z M 7.453125 -7.8125 "/></g></g></g><g fill="#ffffff" fill-opacity="1"><g transform="translate(136.812125, 49.598357)"><g><path d="M 11.65625 -14.5625 L 11.6875 -5.140625 L 10.84375 -4.15625 L 4.640625 -3.953125 L 4.453125 -0.28125 L 0.40625 0.0625 L 0.40625 -15.9375 L 10.875 -15.34375 Z M 7.484375 -12.1875 L 4.84375 -12.4375 L 4.734375 -7.5625 L 7.453125 -7.765625 Z M 7.484375 -12.1875 "/></g></g></g></svg>